<?xml version="1.0" encoding="iso-8859-1"?>
<!-- Generator: Adobe Illustrator 19.0.0, SVG Export Plug-In . SVG Version: 6.00 Build 0)  -->
<svg version="1.1" id="Layer_1" xmlns="http://www.w3.org/2000/svg" xmlns:xlink="http://www.w3.org/1999/xlink" x="0px" y="0px"
	 viewBox="0 0 512 512" style="enable-background:new 0 0 512 512;" xml:space="preserve">
<path style="fill:#E8594F;" d="M401.188,228.095H110.812c-13.624,0-24.669,11.046-24.669,24.669v224.859
	c0,13.625,11.046,24.671,24.669,24.671h290.376c13.625,0,24.669-11.046,24.669-24.669v-224.86
	C425.858,239.14,414.812,228.095,401.188,228.095z"/>
<circle style="fill:#EFEFEF;" cx="256" cy="365.194" r="100.701"/>
<path style="fill:#F4AD47;" d="M256,9.706L256,9.706c-70.358,0-127.393,57.036-127.393,127.393v90.995h60.663V137.1
	c0-36.795,29.935-66.73,66.73-66.73s66.73,29.935,66.73,66.73v90.995h60.664V137.1C383.393,66.742,326.358,9.706,256,9.706z"/>
<g>
	<path style="fill:#231F20;" d="M401.188,218.389H393.1V137.1C393.1,61.502,331.598,0,256,0S118.9,61.502,118.9,137.1v81.289h-8.089
		c-18.955,0-34.376,15.421-34.376,34.376v224.86c0,18.955,15.421,34.376,34.376,34.376h290.376
		c18.956,0,34.377-15.421,34.377-34.376v-224.86C435.564,233.809,420.143,218.389,401.188,218.389z M138.313,137.1
		c0-64.893,52.794-117.687,117.687-117.687S373.687,72.207,373.687,137.1v81.289h-41.251V137.1
		c0-42.147-34.289-76.436-76.436-76.436s-76.436,34.289-76.436,76.436v81.289h-41.251V137.1z M198.976,218.389V137.1
		c0-31.443,25.581-57.024,57.024-57.024s57.024,25.581,57.024,57.024v81.289H198.976z M416.152,477.624
		c0,8.251-6.713,14.963-14.963,14.963H110.812c-8.25,0-14.963-6.712-14.963-14.963v-224.86c0-8.251,6.713-14.963,14.963-14.963
		h17.795h60.663h133.46h60.664h17.795c8.251,0,14.963,6.712,14.963,14.963V477.624z"/>
	<path style="fill:#231F20;" d="M256,254.787c-60.879,0-110.408,49.528-110.408,110.408S195.121,475.602,256,475.602
		s110.408-49.528,110.408-110.408S316.879,254.787,256,254.787z M346.471,355.488h-30.644c-1.127-24.745-6.541-47.837-15.543-65.842
		c-0.95-1.899-1.934-3.72-2.946-5.474C324.047,297.855,343.153,324.339,346.471,355.488z M246.294,277.252v78.237h-30.699
		C217.559,315.724,231.406,286.428,246.294,277.252z M246.294,374.9v78.237c-14.888-9.176-28.735-38.473-30.699-78.237H246.294z
		 M265.706,453.137V374.9h30.699C294.441,414.664,280.594,443.961,265.706,453.137z M265.706,355.488v-78.237
		c14.888,9.176,28.735,38.473,30.699,78.237H265.706z M214.661,284.172c-1.012,1.754-1.997,3.576-2.946,5.474
		c-9.002,18.005-14.416,41.097-15.543,65.842h-30.644C168.847,324.339,187.953,297.855,214.661,284.172z M165.529,374.9h30.644
		c1.127,24.745,6.541,47.837,15.543,65.842c0.95,1.899,1.934,3.72,2.946,5.474C187.953,432.533,168.847,406.05,165.529,374.9z
		 M297.339,446.217c1.012-1.754,1.997-3.576,2.946-5.474c9.002-18.005,14.416-41.097,15.543-65.842h30.644
		C343.153,406.05,324.047,432.533,297.339,446.217z"/>
</g>
<g>
</g>
<g>
</g>
<g>
</g>
<g>
</g>
<g>
</g>
<g>
</g>
<g>
</g>
<g>
</g>
<g>
</g>
<g>
</g>
<g>
</g>
<g>
</g>
<g>
</g>
<g>
</g>
<g>
</g>
</svg>
